<?xml version="1.0" encoding="UTF-8" standalone="no"?><!DOCTYPE svg PUBLIC "-//W3C//DTD SVG 1.1//EN" "http://www.w3.org/Graphics/SVG/1.1/DTD/svg11.dtd"><svg width="100%" height="100%" viewBox="0 0 413 344" version="1.1" xmlns="http://www.w3.org/2000/svg" xmlns:xlink="http://www.w3.org/1999/xlink" xml:space="preserve" xmlns:serif="http://www.serif.com/" style="fill-rule:evenodd;clip-rule:evenodd;stroke-linejoin:round;stroke-miterlimit:2;"><path d="M42.822,0L19.531,0C14.355,0 9.391,2.051 5.713,5.713C2.051,9.375 0,14.339 0,19.531L0,118.002C0,123.178 2.051,128.142 5.713,131.82C9.375,135.483 14.339,137.533 19.531,137.533L140.202,137.533C140.723,137.533 141.227,137.729 141.634,138.07L181.169,172.787C185.645,176.726 192.025,177.67 197.461,175.212C202.898,172.755 206.397,167.335 206.397,161.378L206.397,19.532C206.397,14.356 204.346,9.376 200.684,5.714C197.022,2.051 192.058,0.001 186.866,0.001L65.007,0.001C61.41,0.001 58.497,2.914 58.497,6.511C58.497,10.108 61.41,13.021 65.007,13.021L186.866,13.021C188.591,13.021 190.251,13.705 191.472,14.926C192.693,16.146 193.376,17.807 193.376,19.532L193.376,161.378C193.376,162.224 192.872,163.005 192.107,163.363C191.325,163.705 190.414,163.575 189.779,163.022L150.245,128.305C147.478,125.864 143.913,124.529 140.219,124.529L19.548,124.529C17.823,124.529 16.163,123.845 14.942,122.625C13.721,121.404 13.037,119.744 13.037,118.018L13.037,19.548C13.037,17.822 13.721,16.162 14.942,14.941C16.162,13.72 17.823,13.037 19.548,13.037L42.839,13.037C46.436,13.037 49.349,10.124 49.349,6.527C49.349,2.93 46.436,0.016 42.839,0.016L42.822,0Z" style="fill:rgb(240,125,86);"/><path d="M205.939,235.564L205.939,297.968C205.939,298.424 205.792,298.863 205.532,299.238L190.639,319.876C187.303,324.498 186.831,330.602 189.435,335.68C192.039,340.758 197.264,343.948 202.96,343.948L392.79,343.948C397.965,343.948 402.93,341.898 406.608,338.235C410.27,334.573 412.321,329.609 412.321,324.417L412.321,235.567C412.321,230.391 410.27,225.427 406.608,221.749C402.946,218.087 397.982,216.036 392.79,216.036L225.49,216.036C214.699,216.036 205.958,224.776 205.958,235.567L205.939,235.564ZM218.96,235.564C218.96,231.967 221.873,229.054 225.47,229.054L392.77,229.054C394.495,229.054 396.155,229.737 397.376,230.958C398.597,232.179 399.281,233.839 399.281,235.564L399.281,324.414C399.281,326.14 398.597,327.8 397.376,329.021C396.156,330.241 394.495,330.925 392.77,330.925L202.941,330.925C202.127,330.925 201.378,330.469 201.004,329.737C200.63,329.004 200.695,328.142 201.183,327.474L216.076,306.836C217.947,304.249 218.956,301.14 218.956,297.95L218.956,235.546L218.96,235.564Z" style="fill:rgb(240,125,86);"/><path d="M88.785,61.052C88.606,54.948 93.83,50.098 99.934,50.098C106.086,50.098 111.083,55.095 111.083,61.247C111.083,67.465 105.923,72.168 99.706,72.396C96.109,72.526 93.309,75.538 93.44,79.135C93.57,82.732 96.581,85.531 100.178,85.417C113.443,84.945 124.104,74.528 124.104,61.263C124.104,47.933 113.28,37.093 99.934,37.093C86.539,37.093 75.39,48.063 75.764,61.443C75.861,65.04 78.872,67.872 82.453,67.774C86.05,67.676 88.882,64.665 88.785,61.084L88.785,61.052Z" style="fill:rgb(240,125,86);"/><path d="M93.405,78.889L93.405,97.737C93.405,101.334 96.319,104.247 99.916,104.247C103.513,104.247 106.426,101.334 106.426,97.737L106.426,78.889C106.426,75.292 103.513,72.379 99.916,72.379C96.319,72.379 93.405,75.292 93.405,78.889Z" style="fill:rgb(240,125,86);"/><path d="M298.193,270.493C298.03,264.52 303.141,259.751 309.13,259.751C315.169,259.751 320.068,264.65 320.068,270.689C320.068,276.792 315.006,281.415 308.903,281.626C305.306,281.756 302.49,284.768 302.62,288.365C302.75,291.962 305.761,294.761 309.358,294.647C322.509,294.175 333.089,283.856 333.089,270.705C333.089,257.489 322.363,246.747 309.13,246.747C295.865,246.747 284.798,257.619 285.172,270.884C285.27,274.481 288.281,277.313 291.862,277.215C295.459,277.118 298.291,274.107 298.177,270.526L298.193,270.493Z" style="fill:rgb(240,125,86);"/><path d="M302.618,288.118L302.618,306.755C302.618,310.352 305.531,313.265 309.128,313.265C312.725,313.265 315.639,310.352 315.639,306.755L315.639,288.118C315.639,284.521 312.725,281.608 309.128,281.608C305.531,281.608 302.618,284.521 302.618,288.118Z" style="fill:rgb(240,125,86);"/><path d="M372.022,135.256C372.022,124.53 367.758,114.243 360.173,106.643C352.588,99.058 342.302,94.793 331.56,94.793L286.701,94.793C275.975,94.793 265.689,99.058 258.088,106.643C250.503,114.227 246.239,124.514 246.239,135.256L246.239,167.548C246.239,172.723 248.306,177.688 251.952,181.366C255.614,185.028 260.578,187.079 265.77,187.079L352.474,187.079C357.65,187.079 362.614,185.028 366.293,181.366C369.955,177.704 372.005,172.74 372.005,167.548L372.005,135.256L372.022,135.256ZM359.001,135.256L359.001,167.548C359.001,169.273 358.318,170.933 357.097,172.154C355.876,173.374 354.216,174.058 352.491,174.058L265.787,174.058C264.061,174.058 262.401,173.374 261.18,172.154C259.959,170.933 259.276,169.273 259.276,167.548L259.276,135.256C259.276,127.98 262.173,120.998 267.316,115.855C272.46,110.712 279.442,107.815 286.717,107.815L331.576,107.815C338.851,107.815 345.834,110.712 350.976,115.855C356.12,120.998 359.017,127.981 359.017,135.256L359.001,135.256Z" style="fill:rgb(240,125,86);"/><path d="M78.463,343.572L144.251,343.572C149.427,343.572 154.391,341.522 158.07,337.86C161.732,334.197 163.782,329.233 163.782,324.041L163.782,291.75C163.782,281.024 159.518,270.737 151.933,263.136C144.349,255.552 134.062,251.287 123.32,251.287L78.462,251.287C67.736,251.287 57.449,255.551 49.848,263.136C42.264,270.721 37.999,281.008 37.999,291.75L37.999,324.041C37.999,329.217 40.05,334.181 43.712,337.86C47.374,341.522 52.338,343.572 57.53,343.572C61.127,343.572 64.041,340.659 64.041,337.062C64.041,333.465 61.127,330.552 57.53,330.552C55.805,330.552 54.145,329.868 52.924,328.647C51.703,327.427 51.02,325.766 51.02,324.041L51.02,291.749C51.02,284.474 53.917,277.492 59.06,272.349C64.204,267.206 71.186,264.308 78.461,264.308L123.319,264.308C130.595,264.308 137.577,267.205 142.72,272.349C147.863,277.492 150.761,284.474 150.761,291.749L150.761,324.041C150.761,325.766 150.077,327.427 148.856,328.647C147.636,329.868 145.976,330.552 144.25,330.552L78.463,330.552C74.866,330.552 71.952,333.465 71.952,337.062C71.952,340.659 74.866,343.572 78.463,343.572Z" style="fill:rgb(240,125,86);"/><path d="M296.239,16.131C300.096,14.145 304.475,13.022 309.113,13.022C324.673,13.022 337.303,25.652 337.303,41.212C337.303,56.772 324.673,69.402 309.113,69.402C293.553,69.402 280.923,56.772 280.923,41.212C280.923,37.29 281.72,33.546 283.185,30.145C284.601,26.841 283.071,23.016 279.767,21.6C276.463,20.183 272.639,21.714 271.222,25.018C269.09,29.998 267.918,35.467 267.918,41.212C267.918,63.966 286.392,82.423 309.129,82.423C331.883,82.423 350.34,63.95 350.34,41.212C350.34,18.458 331.867,0.001 309.129,0.001C302.342,0.001 295.929,1.645 290.282,4.559C287.092,6.203 285.822,10.141 287.482,13.332C289.126,16.522 293.048,17.775 296.255,16.131L296.239,16.131Z" style="fill:rgb(240,125,86);"/><path d="M99.918,156.868C77.164,156.868 58.707,175.342 58.707,198.079C58.707,220.833 77.18,239.29 99.918,239.29C122.672,239.29 141.129,220.817 141.129,198.079C141.129,175.325 122.655,156.868 99.918,156.868ZM99.918,169.889C115.478,169.889 128.108,182.519 128.108,198.079C128.108,213.639 115.478,226.269 99.918,226.269C84.358,226.269 71.728,213.639 71.728,198.079C71.728,182.519 84.358,169.889 99.918,169.889Z" style="fill:rgb(240,125,86);"/></svg>