<?xml version="1.0" encoding="UTF-8" standalone="no"?><!DOCTYPE svg PUBLIC "-//W3C//DTD SVG 1.1//EN" "http://www.w3.org/Graphics/SVG/1.1/DTD/svg11.dtd"><svg width="100%" height="100%" viewBox="0 0 394 374" version="1.1" xmlns="http://www.w3.org/2000/svg" xmlns:xlink="http://www.w3.org/1999/xlink" xml:space="preserve" xmlns:serif="http://www.serif.com/" style="fill-rule:evenodd;clip-rule:evenodd;stroke-linejoin:round;stroke-miterlimit:2;"><path d="M134.723,158.372L124.714,198.379C123.802,202.025 126.569,205.573 130.329,205.573L153.474,205.573C156.127,205.573 158.438,203.766 159.089,201.195L168.985,161.644L226.327,187.702C230.168,189.443 234.513,186.628 234.513,182.428L234.513,147.712L240.308,147.712C249.878,147.712 257.674,139.915 257.674,130.345C257.674,120.775 249.878,112.978 240.308,112.978L234.513,112.978L234.513,78.262C234.513,74.046 230.151,71.263 226.327,72.988L163.81,101.406L141.919,101.406C125.968,101.406 112.98,114.378 112.98,130.345C112.964,143.822 122.225,155.182 134.725,158.373L134.723,158.372ZM148.965,194L137.751,194L146.426,159.284L157.64,159.284L148.965,194ZM240.29,124.567C243.48,124.567 246.084,127.155 246.084,130.361C246.084,133.551 243.496,136.155 240.29,136.155L234.496,136.155L234.496,124.583L240.29,124.567ZM222.923,173.442L170.84,149.76L170.84,110.91L222.923,87.228L222.923,173.442ZM141.903,112.992L159.269,112.992L159.269,147.709L141.903,147.709C132.332,147.709 124.536,139.913 124.536,130.342C124.552,120.772 132.332,112.992 141.903,112.992L141.903,112.992Z" style="fill:rgb(240,125,86);fill-rule:nonzero;"/><path d="M249.923,103.068C275.591,112.118 275.542,148.593 249.923,157.626C246.912,158.684 245.333,161.988 246.391,165.015C247.466,168.043 250.77,169.605 253.781,168.547C269.943,162.851 280.783,147.502 280.783,130.347C280.783,113.209 269.926,97.86 253.781,92.147C250.77,91.073 247.466,92.668 246.391,95.679C245.334,98.707 246.912,102.011 249.923,103.068L249.923,103.068Z" style="fill:rgb(240,125,86);fill-rule:nonzero;"/><path d="M393.494,135.197C392.599,131.128 393.169,133.749 333.323,92.13L333.34,37.751C333.34,34.561 330.752,31.957 327.545,31.957L245.416,31.973C197.466,-0.823 200.054,0.919 199.583,0.675C197.679,-0.334 195.384,-0.204 193.61,1.016L148.347,31.99L66.218,31.974C63.028,31.974 60.424,34.561 60.424,37.768L60.424,92.13C-1.28,134.351 2.303,131.762 1.486,132.706C-1.036,135.652 0.51,122.16 0.103,367.619C0.103,370.809 2.707,373.413 5.897,373.413C405.051,373.413 388.285,373.576 389.701,373.104C391.996,372.323 393.64,370.158 393.64,367.619L393.64,237.573C393.64,234.383 391.052,231.779 387.846,231.779C384.656,231.779 382.052,234.367 382.052,237.573L382.052,356.161C284.102,284.011 251.81,260.181 240.727,252.027L382.052,147.894L382.052,191.286C382.052,194.476 384.64,197.08 387.846,197.08C391.036,197.08 393.64,194.492 393.64,191.286C393.64,132.856 393.705,136.127 393.494,135.198L393.494,135.197ZM377.853,136.613L333.32,169.426L333.32,106.142L377.853,136.613ZM196.878,12.784L224.922,31.974L168.851,31.974L196.878,12.784ZM321.749,43.546L321.749,177.954L230.636,245.091C209.722,232.884 184.02,232.884 163.107,245.091L71.995,177.954L71.995,43.546L321.749,43.546ZM86.724,308.062C84.836,305.491 81.206,304.937 78.635,306.842L11.693,356.158L11.693,147.892L153.018,252.025C147.728,255.915 137.344,263.597 115.876,279.401C113.304,281.289 112.751,284.919 114.655,287.49C116.559,290.062 120.173,290.615 122.744,288.711L163.939,258.356C181.68,245.286 206.389,243.024 227.951,257.038C229.156,257.819 229.074,257.835 370.235,361.821L23.522,361.821L85.501,316.15C88.057,314.262 88.61,310.649 86.722,308.061L86.724,308.062ZM60.422,169.425L15.955,136.661C22.938,131.844 35.747,122.859 60.422,106.095L60.422,169.425Z" style="fill:rgb(240,125,86);fill-rule:nonzero;"/><path d="M98.507,350.251L295.269,350.251C298.459,350.251 301.063,347.663 301.063,344.457C301.063,341.267 298.476,338.663 295.269,338.663L98.507,338.663C95.317,338.663 92.713,341.251 92.713,344.457C92.713,347.663 95.3,350.251 98.507,350.251Z" style="fill:rgb(240,125,86);fill-rule:nonzero;"/><path d="M144.798,327.105L248.965,327.105C252.155,327.105 254.759,324.518 254.759,321.311C254.759,318.121 252.171,315.517 248.965,315.517L144.798,315.517C141.608,315.517 139.004,318.105 139.004,321.311C139.004,324.518 141.608,327.105 144.798,327.105Z" style="fill:rgb(240,125,86);fill-rule:nonzero;"/><path d="M393.64,214.426C393.64,222.141 382.068,222.141 382.068,214.426C382.068,206.711 393.64,206.711 393.64,214.426Z" style="fill:rgb(240,125,86);fill-rule:nonzero;"/><path d="M106.761,298.168C106.761,305.883 95.189,305.883 95.189,298.168C95.189,290.453 106.761,290.453 106.761,298.168Z" style="fill:rgb(240,125,86);fill-rule:nonzero;"/></svg>