<?xml version="1.0" encoding="UTF-8" standalone="no"?>
<!DOCTYPE svg PUBLIC "-//W3C//DTD SVG 1.1//EN" "http://www.w3.org/Graphics/SVG/1.1/DTD/svg11.dtd">
<svg width="100%" height="100%" viewBox="0 0 97 86" version="1.1" xmlns="http://www.w3.org/2000/svg" xmlns:xlink="http://www.w3.org/1999/xlink" xml:space="preserve" xmlns:serif="http://www.serif.com/" style="fill-rule:evenodd;clip-rule:evenodd;stroke-linejoin:round;stroke-miterlimit:2;">
    <g transform="matrix(1,0,0,1,-1.647168,-7.19983)">
        <path d="M12.742,7.207L49.125,7.207C51.453,7.207 53.566,8.156 55.094,9.684C56.621,11.211 57.57,13.324 57.57,15.652L57.57,23.512C57.57,25.84 56.621,27.953 55.094,29.481C54.563,30.012 53.961,30.469 53.305,30.848L60.113,58.547C60.402,59.727 60.055,60.914 59.293,61.746L38.559,85.793L65.352,85.793L73.129,76.965C74.403,75.516 76.614,75.375 78.063,76.648C78.313,76.871 78.524,77.117 78.696,77.387L81.079,80.59L92.126,66.817C93.332,65.317 95.532,65.079 97.032,66.282C98.532,67.489 98.77,69.688 97.567,71.188L83.696,88.481C83.512,88.707 83.297,88.914 83.055,89.094C81.508,90.239 79.325,89.915 78.172,88.368L75.528,84.809L69.641,91.489C69.001,92.278 68.02,92.782 66.922,92.782L30.926,92.782C29.77,92.782 28.747,92.219 28.11,91.36L2.497,61.657C1.728,60.77 1.489,59.602 1.747,58.54L8.556,30.841C7.899,30.466 7.298,30.005 6.767,29.473C5.239,27.946 4.29,25.833 4.29,23.505L4.29,15.645C4.29,13.317 5.239,11.204 6.767,9.676C8.294,8.149 10.407,7.2 12.735,7.2L12.742,7.207ZM49.125,14.207L12.742,14.207C12.347,14.207 11.984,14.371 11.722,14.637C11.461,14.898 11.293,15.262 11.293,15.656L11.293,23.516C11.293,23.91 11.457,24.273 11.722,24.535C11.984,24.797 12.347,24.965 12.742,24.965L49.125,24.965C49.52,24.965 49.883,24.801 50.145,24.535C50.406,24.273 50.574,23.91 50.574,23.516L50.574,15.656C50.574,15.262 50.41,14.898 50.145,14.637C49.883,14.375 49.52,14.207 49.125,14.207ZM46.391,31.961L15.477,31.961L8.961,58.469L27.434,79.891L27.434,59.469C25.844,58.93 24.422,58.028 23.262,56.867C21.301,54.907 20.086,52.192 20.086,49.196C20.086,46.199 21.301,43.485 23.262,41.524C25.223,39.563 27.938,38.348 30.934,38.348C33.926,38.348 36.645,39.563 38.606,41.524C40.567,43.485 41.782,46.199 41.782,49.196C41.782,52.188 40.567,54.906 38.606,56.867C37.446,58.028 36.024,58.926 34.434,59.469L34.434,79.891L52.907,58.469L46.391,31.961ZM33.657,46.477C32.961,45.782 31.996,45.348 30.934,45.348C29.871,45.348 28.907,45.782 28.211,46.477C27.516,47.172 27.082,48.137 27.082,49.2C27.082,50.262 27.516,51.227 28.211,51.922C28.907,52.618 29.871,53.051 30.934,53.051C31.996,53.051 32.961,52.618 33.657,51.922C34.352,51.227 34.785,50.262 34.785,49.2C34.785,48.137 34.352,47.172 33.657,46.477Z" style="fill:rgb(240,125,86);fill-rule:nonzero;"/>
    </g>
</svg>
