<?xml version="1.0" encoding="UTF-8" standalone="no"?><!DOCTYPE svg PUBLIC "-//W3C//DTD SVG 1.1//EN" "http://www.w3.org/Graphics/SVG/1.1/DTD/svg11.dtd"><svg width="100%" height="100%" viewBox="0 0 359 417" version="1.1" xmlns="http://www.w3.org/2000/svg" xmlns:xlink="http://www.w3.org/1999/xlink" xml:space="preserve" xmlns:serif="http://www.serif.com/" style="fill-rule:evenodd;clip-rule:evenodd;stroke-linejoin:round;stroke-miterlimit:2;"><path d="M322.868,386.523L65.852,386.523C46.174,386.523 30.158,370.507 30.158,350.829L30.158,124.267C30.158,121.207 32.649,118.717 35.708,118.717L200.729,118.717C202.145,118.717 203.333,117.529 203.333,116.113L203.333,40.283C203.333,38.867 202.145,37.679 200.729,37.679L35.917,37.679C34.338,37.679 32.824,36.996 31.766,35.808C30.708,34.619 30.22,33.041 30.399,31.478C32.531,13.525 47.782,0 65.848,0L251.361,0C254.404,0 256.895,2.474 256.911,5.518C256.911,5.973 256.862,6.413 256.764,6.836L256.764,94.123C256.764,107.681 267.799,118.716 281.357,118.716L353.02,118.716C356.08,118.716 358.57,121.207 358.57,124.266L358.57,350.829C358.57,370.507 342.554,386.522 322.876,386.522L322.868,386.523ZM41.243,129.802L41.243,350.831C41.243,364.405 52.278,375.44 65.852,375.44L322.869,375.44C336.443,375.44 347.478,364.405 347.478,350.831L347.478,129.802L281.349,129.802C261.671,129.802 245.672,113.803 245.672,94.125L245.672,11.116L65.855,11.116C55.585,11.116 46.65,17.464 43.004,26.611L200.733,26.611C208.285,26.611 214.421,32.748 214.421,40.3L214.421,116.129C214.421,123.681 208.285,129.817 200.733,129.817L41.245,129.817L41.243,129.802Z" style="fill:rgb(240,125,86);"/><path d="M292.71,416.681L35.693,416.681C16.015,416.681 0,400.665 0,380.988L0,116.129C0,113.069 2.49,110.579 5.55,110.579C8.61,110.579 11.1,113.07 11.1,116.129C11.1,117.545 12.288,118.733 13.704,118.733L35.709,118.733C38.769,118.733 41.259,121.224 41.259,124.283L41.259,350.846C41.259,364.42 52.294,375.455 65.868,375.455L322.885,375.455C325.945,375.455 328.435,377.945 328.435,381.005C328.435,400.683 312.419,416.715 292.742,416.715L292.71,416.681ZM11.085,129.556L11.085,380.989C11.085,394.563 22.12,405.598 35.694,405.598L292.711,405.598C304.381,405.598 314.162,397.444 316.685,386.539L65.84,386.539C46.162,386.539 30.146,370.523 30.146,350.846L30.146,129.833L13.675,129.833C12.78,129.833 11.917,129.752 11.071,129.589L11.085,129.556Z" style="fill:rgb(240,125,86);"/><path d="M200.735,129.814L13.689,129.814C6.137,129.814 0.001,123.678 0.001,116.126L0.001,40.297C0.001,32.745 6.137,26.608 13.689,26.608L200.735,26.608C208.287,26.608 214.423,32.745 214.423,40.297L214.423,116.126C214.423,123.678 208.287,129.814 200.735,129.814ZM13.689,37.71C12.273,37.71 11.085,38.898 11.085,40.314L11.085,116.143C11.085,117.543 12.273,118.748 13.689,118.748L200.735,118.748C202.151,118.748 203.339,117.559 203.339,116.143L203.339,40.314C203.339,38.898 202.151,37.71 200.735,37.71L13.689,37.71Z" style="fill:rgb(240,125,86);"/><path d="M353.093,129.798L281.366,129.798C261.688,129.798 245.689,113.798 245.689,94.121L245.689,5.562C245.689,3.235 247.137,1.168 249.302,0.354C251.467,-0.46 253.924,0.175 255.438,1.949L356.788,120.111C357.928,121.121 358.644,122.602 358.644,124.262C358.644,127.322 356.17,129.812 353.094,129.812L353.093,129.798ZM256.772,20.535L256.772,94.118C256.772,107.676 267.807,118.711 281.365,118.711L340.97,118.711L256.772,20.535Z" style="fill:rgb(240,125,86);"/><path d="M303.664,361.556L85.06,361.556C72.609,361.556 62.485,351.432 62.485,338.981L62.485,173.943C62.485,161.492 72.609,151.368 85.06,151.368L303.664,151.368C316.115,151.368 326.239,161.492 326.239,173.943L326.239,338.981C326.239,351.432 316.115,361.556 303.664,361.556ZM85.06,162.468C78.729,162.468 73.569,167.628 73.569,173.959L73.569,338.997C73.569,345.328 78.729,350.471 85.06,350.471L303.664,350.471C309.995,350.471 315.139,345.312 315.139,338.997L315.139,173.959C315.139,167.628 309.979,162.485 303.648,162.485L85.044,162.485L85.06,162.468Z" style="fill:rgb(240,125,86);"/><path d="M147.464,188.931L94.014,188.931C90.954,188.931 88.464,186.441 88.464,183.381C88.464,180.321 90.954,177.831 94.014,177.831L147.464,177.831C150.524,177.831 153.014,180.321 153.014,183.381C153.014,186.441 150.524,188.931 147.464,188.931Z" style="fill:rgb(240,125,86);"/><path d="M173.014,213.298L93.993,213.298C90.933,213.298 88.443,210.807 88.443,207.748C88.443,204.688 90.934,202.198 93.993,202.198L173.014,202.198C176.074,202.198 178.564,204.688 178.564,207.748C178.564,210.807 176.074,213.298 173.014,213.298Z" style="fill:rgb(240,125,86);"/><path d="M127.247,237.643L93.995,237.643C90.935,237.643 88.445,235.153 88.445,232.093C88.445,229.034 90.936,226.543 93.995,226.543L127.247,226.543C130.307,226.543 132.797,229.034 132.797,232.093C132.797,235.153 130.307,237.643 127.247,237.643Z" style="fill:rgb(240,125,86);"/><path d="M294.727,262.01L93.993,262.01C90.933,262.01 88.443,259.52 88.443,256.46C88.443,253.4 90.934,250.91 93.993,250.91L294.727,250.91C297.787,250.91 300.277,253.4 300.277,256.46C300.277,259.52 297.786,262.01 294.727,262.01Z" style="fill:rgb(240,125,86);"/><path d="M147.464,286.377L94.014,286.377C90.954,286.377 88.464,283.887 88.464,280.827C88.464,277.767 90.954,275.277 94.014,275.277L147.464,275.277C150.524,275.277 153.014,277.767 153.014,280.827C153.014,283.887 150.524,286.377 147.464,286.377Z" style="fill:rgb(240,125,86);"/><path d="M127.247,310.723L93.995,310.723C90.935,310.723 88.445,308.232 88.445,305.173C88.445,302.113 90.936,299.623 93.995,299.623L127.247,299.623C130.307,299.623 132.797,302.113 132.797,305.173C132.797,308.232 130.307,310.723 127.247,310.723Z" style="fill:rgb(240,125,86);"/><path d="M173.014,335.089L93.993,335.089C90.933,335.089 88.443,332.599 88.443,329.539C88.443,326.479 90.934,323.989 93.993,323.989L173.014,323.989C176.074,323.989 178.564,326.48 178.564,329.539C178.564,332.599 176.074,335.089 173.014,335.089Z" style="fill:rgb(240,125,86);"/><path d="M221.077,188.931L167.627,188.931C164.567,188.931 162.077,186.441 162.077,183.381C162.077,180.321 164.567,177.831 167.627,177.831L221.077,177.831C224.137,177.831 226.627,180.321 226.627,183.381C226.627,186.441 224.136,188.931 221.077,188.931Z" style="fill:rgb(240,125,86);"/><path d="M294.727,188.931L241.277,188.931C238.217,188.931 235.727,186.441 235.727,183.381C235.727,180.321 238.217,177.831 241.277,177.831L294.727,177.831C297.787,177.831 300.277,180.321 300.277,183.381C300.277,186.441 297.786,188.931 294.727,188.931Z" style="fill:rgb(240,125,86);"/><path d="M294.727,213.298L215.722,213.298C212.663,213.298 210.172,210.807 210.172,207.748C210.172,204.688 212.663,202.198 215.722,202.198L294.727,202.198C297.787,202.198 300.277,204.688 300.277,207.748C300.277,210.807 297.786,213.298 294.727,213.298Z" style="fill:rgb(240,125,86);"/><path d="M183.072,237.643L149.82,237.643C146.76,237.643 144.27,235.153 144.27,232.093C144.27,229.034 146.761,226.543 149.82,226.543L183.072,226.543C186.132,226.543 188.622,229.034 188.622,232.093C188.622,235.153 186.132,237.643 183.072,237.643Z" style="fill:rgb(240,125,86);"/><path d="M238.902,237.643L205.65,237.643C202.59,237.643 200.1,235.153 200.1,232.093C200.1,229.034 202.59,226.543 205.65,226.543L238.902,226.543C241.962,226.543 244.452,229.034 244.452,232.093C244.452,235.153 241.961,237.643 238.902,237.643Z" style="fill:rgb(240,125,86);"/><path d="M294.727,237.643L261.475,237.643C258.415,237.643 255.925,235.153 255.925,232.093C255.925,229.034 258.415,226.543 261.475,226.543L294.727,226.543C297.787,226.543 300.277,229.034 300.277,232.093C300.277,235.153 297.786,237.643 294.727,237.643Z" style="fill:rgb(240,125,86);"/><path d="M221.093,286.377L167.643,286.377C164.583,286.377 162.093,283.887 162.093,280.827C162.093,277.767 164.584,275.277 167.643,275.277L221.093,275.277C224.153,275.277 226.643,277.767 226.643,280.827C226.643,283.887 224.153,286.377 221.093,286.377Z" style="fill:rgb(240,125,86);"/><path d="M294.727,286.377L241.277,286.377C238.217,286.377 235.727,283.887 235.727,280.827C235.727,277.767 238.217,275.277 241.277,275.277L294.727,275.277C297.787,275.277 300.277,277.767 300.277,280.827C300.277,283.887 297.786,286.377 294.727,286.377Z" style="fill:rgb(240,125,86);"/><path d="M183.072,310.723L149.82,310.723C146.76,310.723 144.27,308.232 144.27,305.173C144.27,302.113 146.761,299.623 149.82,299.623L183.072,299.623C186.132,299.623 188.622,302.113 188.622,305.173C188.622,308.232 186.132,310.723 183.072,310.723Z" style="fill:rgb(240,125,86);"/><path d="M238.902,310.723L205.65,310.723C202.59,310.723 200.1,308.232 200.1,305.173C200.1,302.113 202.59,299.623 205.65,299.623L238.902,299.623C241.962,299.623 244.452,302.113 244.452,305.173C244.452,308.232 241.961,310.723 238.902,310.723Z" style="fill:rgb(240,125,86);"/><path d="M294.727,310.723L261.475,310.723C258.415,310.723 255.925,308.232 255.925,305.173C255.925,302.113 258.415,299.623 261.475,299.623L294.727,299.623C297.787,299.623 300.277,302.113 300.277,305.173C300.277,308.232 297.786,310.723 294.727,310.723Z" style="fill:rgb(240,125,86);"/><path d="M294.727,335.089L215.722,335.089C212.663,335.089 210.172,332.599 210.172,329.539C210.172,326.479 212.663,323.989 215.722,323.989L294.727,323.989C297.787,323.989 300.277,326.48 300.277,329.539C300.277,332.599 297.786,335.089 294.727,335.089Z" style="fill:rgb(240,125,86);"/><path d="M98.356,105.335C95.296,105.335 92.806,102.845 92.806,99.785L92.806,73.939L87.467,81.41C86.426,82.875 84.749,83.737 82.943,83.737C81.153,83.737 79.476,82.875 78.418,81.41L73.08,73.939L73.08,99.769C73.08,102.829 70.59,105.319 67.53,105.319C64.47,105.319 61.98,102.829 61.98,99.769L61.98,56.606C61.98,54.198 63.543,52.066 65.837,51.333C68.132,50.601 70.639,51.431 72.039,53.4L82.911,68.651L93.784,53.4C95.183,51.431 97.69,50.617 99.985,51.333C102.28,52.065 103.842,54.198 103.842,56.606L103.842,99.769C103.842,102.829 101.368,105.319 98.292,105.319L98.356,105.335Z" style="fill:rgb(240,125,86);"/><path d="M134.702,105.335L122.56,105.335C119.5,105.335 117.01,102.845 117.01,99.785L117.01,56.623C117.01,53.563 119.5,51.073 122.56,51.073L134.702,51.073C144.451,51.073 152.377,59.015 152.377,68.748L152.377,87.628C152.377,97.378 144.435,105.304 134.702,105.304L134.702,105.335ZM128.11,94.251L134.702,94.251C138.347,94.251 141.293,91.289 141.293,87.659L141.293,68.779C141.293,65.133 138.331,62.188 134.702,62.188L128.11,62.188L128.11,94.268L128.11,94.251Z" style="fill:rgb(240,125,86);"/></svg>