<?xml version="1.0" encoding="UTF-8" standalone="no"?><!DOCTYPE svg PUBLIC "-//W3C//DTD SVG 1.1//EN" "http://www.w3.org/Graphics/SVG/1.1/DTD/svg11.dtd"><svg width="100%" height="100%" viewBox="0 0 134 100" version="1.1" xmlns="http://www.w3.org/2000/svg" xmlns:xlink="http://www.w3.org/1999/xlink" xml:space="preserve" xmlns:serif="http://www.serif.com/" style="fill-rule:evenodd;clip-rule:evenodd;stroke-linejoin:round;stroke-miterlimit:2;"><path d="M112.5,0C124.006,0 133.333,9.327 133.333,20.833L133.333,79.167C133.333,90.672 124.006,100 112.5,100L20.833,100C9.327,100 0,90.672 0,79.167L0,20.833C0,9.327 9.327,0 20.833,0L112.5,0ZM42.275,67.8C41.775,66.6 41.1,65.075 40.25,63.225C39.45,61.375 38.575,59.375 37.625,57.225C36.675,55.075 35.65,52.875 34.55,50.625C33.5,48.325 32.5,46.175 31.55,44.175C30.6,42.125 29.7,40.3 28.85,38.7C28.05,37.1 27.4,35.875 26.9,35.025C26.35,40.925 25.9,47.325 25.55,54.225C25.2,61.075 24.9,68 24.65,75L17.525,75C17.725,70.5 17.95,65.975 18.2,61.425C18.45,56.825 18.725,52.325 19.025,47.925C19.375,43.475 19.725,39.15 20.075,34.95C20.475,30.75 20.9,26.775 21.35,23.025L27.725,23.025C29.075,25.225 30.525,27.825 32.075,30.825C33.625,33.825 35.175,36.975 36.725,40.275C38.275,43.525 39.775,46.8 41.225,50.1C42.675,53.35 44,56.325 45.2,59.025C46.4,56.325 47.725,53.35 49.175,50.1C50.625,46.8 52.125,43.525 53.675,40.275C55.225,36.975 56.775,33.825 58.325,30.825C59.875,27.825 61.325,25.225 62.675,23.025L69.05,23.025C70.75,39.775 72.025,57.1 72.875,75L65.75,75C65.5,68 65.2,61.075 64.85,54.225C64.5,47.325 64.05,40.925 63.5,35.025C63,35.875 62.325,37.1 61.475,38.7C60.675,40.3 59.8,42.125 58.85,44.175C57.9,46.175 56.875,48.325 55.775,50.625C54.725,52.875 53.725,55.075 52.775,57.225C51.825,59.375 50.925,61.375 50.075,63.225C49.275,65.075 48.625,66.6 48.125,67.8L42.275,67.8ZM83.333,60.059C81.706,58.432 81.706,55.794 83.333,54.167C84.96,52.54 87.599,52.54 89.226,54.167L95.371,60.312L95.371,25.462C95.371,23.161 97.237,21.295 99.538,21.295C101.839,21.295 103.705,23.161 103.705,25.462L103.705,60.312L109.85,54.167C111.477,52.54 114.115,52.54 115.743,54.167C117.37,55.794 117.37,58.432 115.743,60.059L102.484,73.318C100.857,74.945 98.219,74.945 96.592,73.318L83.333,60.059Z" style="fill:rgb(240,125,86);"/></svg>